<svg width="40" height="77" viewBox="0 0 40 77" fill="none" xmlns="http://www.w3.org/2000/svg">
<path id="Vector" d="M0.528564 76.9356C0.424881 76.8932 0.330772 76.8309 0.251675 76.7525C0.171925 76.6747 0.108627 76.5821 0.0654297 76.4801C0.0222321 76.3781 -7.56547e-06 76.2688 -7.55581e-06 76.1583C-7.54615e-06 76.0478 0.0222321 75.9384 0.0654298 75.8365C0.108627 75.7345 0.171925 75.6419 0.251675 75.5641L37.9445 38.5L0.251681 1.43586C0.171931 1.35807 0.108634 1.26551 0.0654363 1.16353C0.0222387 1.06155 -9.81083e-07 0.952175 -9.71424e-07 0.841694C-9.61766e-07 0.731221 0.0222387 0.621846 0.0654364 0.519863C0.108634 0.417889 0.171931 0.325329 0.251681 0.247532C0.330779 0.169094 0.424888 0.106839 0.528571 0.0643505C0.632255 0.0218624 0.743465 -3.43192e-06 0.855788 -3.4221e-06C0.968112 -3.41228e-06 1.07932 0.0218624 1.18301 0.0643505C1.28669 0.106839 1.38079 0.169095 1.45989 0.247532L39.7483 37.9058C39.8281 37.9836 39.8914 38.0762 39.9346 38.1782C39.9778 38.2801 40 38.3895 40 38.5C40 38.6105 39.9778 38.7199 39.9346 38.8218C39.8914 38.9238 39.8281 39.0164 39.7483 39.0942L1.45988 76.7525C1.38079 76.8309 1.28668 76.8932 1.183 76.9356C1.07932 76.9781 0.968105 77 0.855782 77C0.743458 77 0.632248 76.9781 0.528564 76.9356Z" fill="#313131"/>
</svg>
