<svg width="40" height="77" viewBox="0 0 40 77" fill="none" xmlns="http://www.w3.org/2000/svg">
<path id="Vector" d="M39.4714 0.0643598C39.5751 0.106846 39.6692 0.169102 39.7483 0.247539C39.8281 0.325335 39.8914 0.417892 39.9346 0.51987C39.9778 0.621848 40 0.731229 40 0.841703C40 0.952178 39.9778 1.06156 39.9346 1.16354C39.8914 1.26551 39.8281 1.35807 39.7483 1.43587L2.05549 38.5L39.7483 75.5641C39.8281 75.6419 39.8914 75.7345 39.9346 75.8365C39.9778 75.9384 40 76.0478 40 76.1583C40 76.2688 39.9778 76.3782 39.9346 76.4801C39.8914 76.5821 39.8281 76.6747 39.7483 76.7525C39.6692 76.8309 39.5751 76.8932 39.4714 76.9356C39.3678 76.9781 39.2565 77 39.1442 77C39.0319 77 38.9207 76.9781 38.817 76.9356C38.7133 76.8932 38.6192 76.8309 38.5401 76.7525L0.251681 39.0942C0.171932 39.0164 0.108633 38.9238 0.0654366 38.8218C0.0222398 38.7199 0 38.6105 0 38.5C0 38.3895 0.0222398 38.2801 0.0654366 38.1782C0.108633 38.0762 0.171932 37.9836 0.251681 37.9058L38.5401 0.247539C38.6192 0.169102 38.7133 0.106846 38.817 0.0643598C38.9207 0.021874 39.0319 0 39.1442 0C39.2565 0 39.3678 0.021874 39.4714 0.0643598Z" fill="#313131"/>
</svg>
